<svg xmlns="http://www.w3.org/2000/svg" height="127.72" viewBox="0 0 249.99999 127.72108" width="250"><path fill="#002878" d="m136.02 1.1197-16.305 1.7018v2.3924h3.0776c4.9393 0 6.4148 1.9706 6.4148 6.7684v65.855c0 7.3354-1.473 9.4481-6.2822 9.4481h-2.4035v2.4035h26.317v-2.4035h-1.1934c-5.7484 0-7.3486-1.6839-7.3486-7.0447v-79.121h-2.2764zm24.77 0.0055-15.228 1.6962v2.3924c7.6154 0 8.4039 0.99582 8.4039 8.6028v74.878c6.4188 1.1287 10.827 1.5581 14.708 1.5581 24.315 0 32.201-15.654 32.201-27.499 0-13.683-9.6158-24.399-21.913-24.399-5.7512 0-11.887 2.8277-15.902 7.4756v-44.705h-2.2709zm-120.06 5.7794c-22.858 0-39.555 18.894-39.555 44.567 0 26.931 19.24 40.193 37.677 40.191 14.282 0 26.145-7.594 31.466-19.797 2.8525 11.441 12.623 19.377 25.051 19.377 14.832 0 25.913-11.285 25.913-26.372 0-15.231-11.081-26.516-25.913-26.516-14.835 0-25.924 11.285-25.924 26.516l-0.6575 3.9395 1.0995 1.0774c0.01977 0.11418 0.02309 0.23453 0.0442 0.34809l-1.1437-1.42c-5.7484 11.844-14.699 17.769-26.726 17.769-17.239 0-29.129-15.941-29.129-40.196 0-20.727 9.8861-36.384 28.328-36.384 13.232 0 21.112 6.6307 24.852 21.858h2.2764v-24.112h-2.1383c-0.80907 1.7002-2.141 2.5361-4.1439 2.5361-4.5489 0-11.764-3.3814-21.377-3.3814zm156.46 32.997v2.4035c5.474 0.13579 7.2206 1.6878 9.6139 7.4701l16.979 41.318-6.1496 18.056c-4.2236 11.319-11.921 7.8242-13.791 6.9784l-0.4365 10.139c1.8048 0.57427 1.2885 0.57462 3.2433 0.57462 5.7399 0 9.1172-2.4612 12.863-14.023l18.836-58.805c2.6705-8.3255 5.7459-11.708 10.829-11.708v-2.4035h-16.708v2.4035c5.2109 0.28006 5.616 3.5187 3.7461 9.4481l-8.2878 26.366-11.36-28.206c-1.7398-4.2292-0.2668-7.0453 3.3372-7.6082v-2.4035h-22.714zm-101.82 1.276c10.959 0 16.034 11.14 16.034 23.692 0 12.119-4.8091 23.549-16.034 23.549-10.954 0-16.04-10.719-16.04-23.549 0-14.388 6.0225-23.692 16.04-23.692zm79.856 1.2598c7.2194 0 15.775 7.2001 15.775 21.432 0 17.064-9.4967 23.841-19.918 23.841-6.5489 0-8.0171-3.1018-8.0171-9.7299v-28.488c3.7455-4.9365 7.3462-7.0557 12.161-7.0557z"/></svg>
